<?xml version="1.0" encoding="utf-8"?>
<!-- Generator: Adobe Illustrator 23.0.1, SVG Export Plug-In . SVG Version: 6.00 Build 0)  -->
<svg version="1.1" id="Layer_1" xmlns="http://www.w3.org/2000/svg" xmlns:xlink="http://www.w3.org/1999/xlink" x="0px" y="0px"
	 viewBox="0 0 283.3 66.3" style="enable-background:new 0 0 283.3 66.3;" xml:space="preserve">
<style type="text/css">
	.st0{fill:#003C77;}
	.st1{fill:#00A1CC;}
	.st2{fill:#0093C1;}
	.st3{fill:#0081B2;}
	.st4{fill:#006397;}
	.st5{fill:#00568C;}
	.st6{fill:#0072A4;}
	.st7{fill:#004880;}
	.st8{font-family:'Raleway-ExtraBold';}
	.st9{font-size:44.2px;}
	.st10{font-family:'Raleway-SemiBold';}
	.st11{font-size:22px;}
</style>
<title>dunbrae-philippines</title>
<polygon class="st0" points="23.2,8 31.2,0 40.2,8 35.2,19 31.2,16 27.2,19 "/>
<polygon class="st1" points="41.8,10 53.1,10 53.8,22 42.5,26.3 41.8,21.3 36.8,20.6 "/>
<polygon class="st2" points="54.2,23.9 62.2,31.9 54.2,40.8 43.2,35.8 46.2,31.9 43.2,27.9 "/>
<polygon class="st3" points="52.2,42.4 52.2,53.7 40.2,54.4 36,43.1 40.9,42.4 41.6,37.5 "/>
<polygon class="st4" points="19.7,55 8.4,55 7.7,43 19,38.7 19.7,43.7 24.6,44.4 "/>
<polygon class="st5" points="8,40.5 0,32.5 8,23.5 19,28.5 16,32.5 19,36.5 "/>
<polygon class="st6" points="38.2,55 30.2,63 21.2,55 26.2,44 30.2,47 34.2,44 "/>
<polygon class="st7" points="9.2,21.5 9.2,10.2 21.3,9.5 25.5,20.8 20.5,21.5 19.8,26.5 "/>
<text transform="matrix(1 0 0 1 69.32 39.67)" class="st0 st8 st9">DUNBRAE</text>
<text transform="matrix(1 0 0 1 103.45 61.43)" class="st0 st10 st11">PHILIPPINES INC.</text>
</svg>
