<svg id="Layer_1" data-name="Layer 1" xmlns="http://www.w3.org/2000/svg" viewBox="0 0 115.27 295.41"><defs><style>.cls-1{fill:#ed8a40;}.cls-2{fill:#ffb680;}.cls-3{fill:#3c3c3c;}.cls-4{fill:#003c77;}.cls-5{fill:#2a7abc;}.cls-6{fill:#30302e;}.cls-7{fill:#056cd3;}.cls-8{fill:#fff;}.cls-9{fill:#fcb33d;}.cls-10{fill:#ffce88;}.cls-11{fill:#48c2ff;}.cls-12{fill:#e2901a;}.cls-13{fill:#ff364a;}.cls-14{fill:#77bc87;}.cls-15{fill:#5a725f;}</style></defs><title>technician</title><path class="cls-1" d="M139.73,43.05s.37,5.33-.45,8.42c-.49,1.83,8.76,10,8.76,10s6.25-5.45,6.77-10c-.21-3.81-.41-8.42-.41-8.42Z" transform="translate(-95.82 -2.29)"/><path class="cls-2" d="M134.35,25.15s-1.88-1-3.09,1.43,1,6.29,3.12,6.4S134.35,25.15,134.35,25.15Z" transform="translate(-95.82 -2.29)"/><path class="cls-2" d="M162.74,25.77s2-.7,2.84,1.87-1.93,6.07-4,5.87S162.74,25.77,162.74,25.77Z" transform="translate(-95.82 -2.29)"/><path class="cls-2" d="M162.43,27.87c0,10.42-6.43,18.87-14.37,18.87S133.7,38.29,133.7,27.87,140.13,9,148.06,9,162.43,17.45,162.43,27.87Z" transform="translate(-95.82 -2.29)"/><path class="cls-3" d="M133,25.15a9,9,0,0,0,1.53.62c3.25.51,6.42-1.92,7.81-3.36s3.34-6,3.34-6,3.91,5.2,6.43,6.69A33.67,33.67,0,0,0,162.4,26.6l.72-.83S163,21,157,18.43s-12-3.32-13.35-2.91S134.16,20.64,133,25.15Z" transform="translate(-95.82 -2.29)"/><path class="cls-4" d="M132.6,22l15.85-4,15.85,4.66s1.14-20.36-15.85-20.36S132.6,22,132.6,22Z" transform="translate(-95.82 -2.29)"/><path class="cls-5" d="M132.6,22s6-9,15.85-9c10.85,0,15.85,9.6,15.85,9.6a28.58,28.58,0,0,1-6.92-1.89c-3.09-1.38-11.59-3.53-16.9-.54S132.6,22,132.6,22Z" transform="translate(-95.82 -2.29)"/><path class="cls-4" d="M133,25.15S141,20,148.45,20a20.37,20.37,0,0,1,14.67,5.8l1.18-3.12a25,25,0,0,0-15.85-5.76c-10.6,0-15.85,5.13-15.85,5.13Z" transform="translate(-95.82 -2.29)"/><path class="cls-6" d="M206.2,188.69s-2.46-28.78-11.32-28.78a9.19,9.19,0,0,0,0,3.18s5.79,1.4,8,21.89C204.46,199.12,206.2,188.69,206.2,188.69Z" transform="translate(-95.82 -2.29)"/><path class="cls-2" d="M176.29,94.06s5,11.34,5.92,21c.72,7.47,3.86,28.23,2.58,35.32-.88,4.92-3.33,11-2.38,13.81.29.86.25-1.65,1.6-1,.53.25.82,2.56,1.78,3,3.44,1.75,7.89,2.81,10.41-3,2.79-6.49-3-9.72-1.66-14.65S198,117,198,112.24c0-7.64-4.74-23.46-4.74-23.46Z" transform="translate(-95.82 -2.29)"/><path class="cls-4" d="M163.55,119.49c-.78-1.39-2.77-1.69-6.9-1.85s-.5-3.7,3-6.32,6.2-6.79,7-14.13c.36-3.41,3.74-14,3.85-16.88.15-4.24,4.16,4,5,6.17,1,2.5,2.76,7,3.94,10l15.07-3.62S190,78.52,188,73.79c-2.88-7-6-9.68-13.2-13.64-4.78-2.62-20-8.68-20-8.68s-1.44,4.06-7.72,4.06a9.18,9.18,0,0,1-7.81-4.06s-18,7.53-23.55,10c-1.61.7-6.43,5.14-9.36,13.27-2.52,7-5.76,19.12-5.76,19.12l16.14-1L120,85.71l2.66,42h40.7C163.66,123.88,163.91,120.14,163.55,119.49Z" transform="translate(-95.82 -2.29)"/><path class="cls-5" d="M172.39,84.06l5.05,13,3.66-.88c-1.17-3-3.12-7.16-4.13-9.66s-2.9-5.63-4.4-9.1c-1.7-3.93-3.55-4.32-4-.69-.74,5.76-1.36,15.24-1.92,20.5-.77,7.34-3.46,11.5-7,14.13s-7.16,6.17-3,6.32,6.12.46,6.9,1.85c.36.65.11,4.39-.23,8.22h7.06Z" transform="translate(-95.82 -2.29)"/><path class="cls-4" d="M124.51,295.47c2.11-.77,7-6,8.56-9.44s2.11-4.94,1.68-8a21.94,21.94,0,0,1,.48-6.16l-13.52.75s-1.74,4.61-3.79,9.59c-1.5,3.64-2.46,8.22-2.26,11.08a7.06,7.06,0,0,1,3-1C120.44,292.22,122.41,296.24,124.51,295.47Z" transform="translate(-95.82 -2.29)"/><path class="cls-7" d="M129.49,293.61c4.19-4.95,6-8.25,7.16-12.37s0-9.49,0-9.49l-1.42.08a21.94,21.94,0,0,0-.48,6.16c.43,3.1-.14,4.64-1.68,8s-6.45,8.67-8.56,9.44-4.07-3.25-5.89-3.25a7.06,7.06,0,0,0-3,1,4.18,4.18,0,0,0,.64,2.22C118.88,298.82,125.3,298.56,129.49,293.61Z" transform="translate(-95.82 -2.29)"/><path class="cls-8" d="M123.53,276s-1.55,4.33-2.67,6.65-1.26,3.87,0,4.49,3.37-.5,4.49-3.42,1.06-7.72,1.06-7.72Z" transform="translate(-95.82 -2.29)"/><path class="cls-4" d="M183.33,295.47c-2.1-.77-7-6-8.56-9.44s-2.1-4.94-1.68-8a21.93,21.93,0,0,0-.47-6.16l13.52.75s1.73,4.61,3.79,9.59c1.5,3.64,2.46,8.22,2.25,11.08a7,7,0,0,0-3-1C187.4,292.22,185.44,296.24,183.33,295.47Z" transform="translate(-95.82 -2.29)"/><path class="cls-7" d="M178.35,293.61c-4.19-4.95-6-8.25-7.16-12.37s0-9.49,0-9.49l1.43.08a21.93,21.93,0,0,1,.47,6.16c-.42,3.1.14,4.64,1.68,8s6.46,8.67,8.56,9.44,4.07-3.25,5.89-3.25a7,7,0,0,1,3,1,4.28,4.28,0,0,1-.63,2.22C189,298.82,182.54,298.56,178.35,293.61Z" transform="translate(-95.82 -2.29)"/><path class="cls-8" d="M184.32,276s1.54,4.33,2.66,6.65,1.27,3.87,0,4.49-3.36-.5-4.49-3.42-1.06-7.72-1.06-7.72Z" transform="translate(-95.82 -2.29)"/><path class="cls-3" d="M123.81,127.71s-2.07,26.48-4.62,50.56c-2.07,19.66-3.53,97.73-3.53,97.73h21.5s1.07-66.83,2.36-74.76,7.54-46.65,7.54-46.65,9,36.35,10.43,47.26S169.89,276,169.89,276h20.26s-6.63-64-8.72-76.13-11.05-72.16-11.05-72.16Z" transform="translate(-95.82 -2.29)"/><rect class="cls-9" x="44.16" y="125.41" width="34.86" height="39.67"/><rect class="cls-9" x="24.79" y="125.41" width="54.23" height="11.63"/><rect class="cls-10" x="24.79" y="125.41" width="54.15" height="1.82"/><path class="cls-2" d="M100.61,93c-4,4.4-6.48,14.81-3.4,23.66.83,2.38,4.22,3.9,7.51,2.67,3.06-1.15,8.78-4.9,10.92-7.93,4.69-6.62,4-11.84,2.06-11.56C113.89,100.4,105.42,87.77,100.61,93Z" transform="translate(-95.82 -2.29)"/><path class="cls-1" d="M108.22,99.29a11.24,11.24,0,0,1-2.27.41,15.66,15.66,0,0,1,1.14,4.14c.26,2,.42,5.42.42,5.42s11.48-7.15,11.68-9.56-6-4.12-6-4.12Z" transform="translate(-95.82 -2.29)"/><path class="cls-3" d="M109.34,58.88c-.44-2.07-2.67-1.25-2.19,1,3.56,17,3.28,35.71,2.15,53.17-.49,7.71-3.53,22.53-3.76,23.44-.76,3,2.22,3.72,3,.72C114.7,113.44,114.51,83.11,109.34,58.88Z" transform="translate(-95.82 -2.29)"/><polygon class="cls-11" points="53.53 82.8 48.89 82.8 48.89 55.64 51.27 53.23 53.53 55.64 53.53 82.8"/><path class="cls-5" d="M137.31,49.67,134.49,53a1.24,1.24,0,0,0,.12,1.74l6.61,5.87a1.24,1.24,0,0,0,1.78-.13l3.26-3.91a1.26,1.26,0,0,0-.22-1.8l-7-5.26A1.25,1.25,0,0,0,137.31,49.67Z" transform="translate(-95.82 -2.29)"/><path class="cls-5" d="M156.81,49.67l2.83,3.3a1.25,1.25,0,0,1-.12,1.74l-6.61,5.87a1.25,1.25,0,0,1-1.79-.13l-3.25-3.91a1.25,1.25,0,0,1,.21-1.8l7-5.26A1.24,1.24,0,0,1,156.81,49.67Z" transform="translate(-95.82 -2.29)"/><path class="cls-7" d="M148.34,62.18A1.31,1.31,0,1,1,147,60.87,1.31,1.31,0,0,1,148.34,62.18Z" transform="translate(-95.82 -2.29)"/><path class="cls-7" d="M148.34,69.36A1.31,1.31,0,1,1,147,68.05,1.31,1.31,0,0,1,148.34,69.36Z" transform="translate(-95.82 -2.29)"/><path class="cls-7" d="M148.34,77.38A1.31,1.31,0,1,1,147,76.07,1.31,1.31,0,0,1,148.34,77.38Z" transform="translate(-95.82 -2.29)"/><rect class="cls-12" x="24.79" y="133.81" width="19.37" height="3.23"/><path class="cls-3" d="M159.87,144A47,47,0,0,1,161,133.18c1.42-6,3.13-10.25,4.74-9.56s-.87,5.95-1.74,10.56c-.74,4-1.48,10.64-1.48,10.64Z" transform="translate(-95.82 -2.29)"/><path class="cls-3" d="M167.82,146.57a46.89,46.89,0,0,0,5.52-9.31c2.45-5.68,3.59-10.1,1.89-10.5s-2.84,5.3-4.89,9.51c-1.77,3.63-5.15,9.43-5.15,9.43Z" transform="translate(-95.82 -2.29)"/><path class="cls-13" d="M157.44,144a47.63,47.63,0,0,0-1.12-10.77c-1.43-6-3.13-10.25-4.74-9.56s.87,5.95,1.73,10.56c.75,4,1.49,10.64,1.49,10.64Z" transform="translate(-95.82 -2.29)"/><path class="cls-13" d="M149.48,146.57a47.13,47.13,0,0,1-5.51-9.31c-2.45-5.68-3.6-10.1-1.89-10.5s2.84,5.3,4.89,9.51c1.77,3.63,5.15,9.43,5.15,9.43Z" transform="translate(-95.82 -2.29)"/><rect class="cls-12" x="48.89" y="141.42" width="25.97" height="19.44"/><path class="cls-6" d="M174.84,187.46s1.93-27.55,10.8-27.55a9.19,9.19,0,0,1,0,3.18s-5.79,1.4-8,21.89C176.06,199.12,174.84,187.46,174.84,187.46Z" transform="translate(-95.82 -2.29)"/><path class="cls-14" d="M202.5,183.11H177.79s-8.58,11-8.58,20.25v23.75h41.88V203.36C211.09,194.07,202.5,183.11,202.5,183.11Z" transform="translate(-95.82 -2.29)"/><path class="cls-10" d="M143.53,165.1A1.13,1.13,0,1,1,142.4,164,1.14,1.14,0,0,1,143.53,165.1Z" transform="translate(-95.82 -2.29)"/><path class="cls-10" d="M124.57,133.05a1.13,1.13,0,1,1-1.13-1.13A1.13,1.13,0,0,1,124.57,133.05Z" transform="translate(-95.82 -2.29)"/><circle class="cls-10" cx="41.91" cy="130.76" r="1.13"/><circle class="cls-10" cx="76.7" cy="162.81" r="1.13"/><path class="cls-15" d="M196.3,183.11H184s-1.75,5.7,1,13.49a82,82,0,0,0,4.9,11.35,69.6,69.6,0,0,0,5.45-11.35C198.05,188.81,196.3,183.11,196.3,183.11Z" transform="translate(-95.82 -2.29)"/><path class="cls-8" d="M177.79,183.11s1,10.59,3.64,16.76,5.69,12.18,5.69,12.18a23,23,0,0,1-8-10.2,61.08,61.08,0,0,1-3.79-15.2Z" transform="translate(-95.82 -2.29)"/><path class="cls-8" d="M202.67,183.11s-1,10.59-3.65,16.76-5.68,12.18-5.68,12.18a23.06,23.06,0,0,0,8-10.2,60.79,60.79,0,0,0,3.78-15.2Z" transform="translate(-95.82 -2.29)"/><rect class="cls-6" x="73.39" y="224.81" width="41.88" height="3.61"/><path class="cls-8" d="M181.18,209a10.79,10.79,0,0,0-1.67,5.45c0,3,3.45,2.78,3.45,0A11.33,11.33,0,0,0,181.18,209Z" transform="translate(-95.82 -2.29)"/><path class="cls-8" d="M199.85,209a10.79,10.79,0,0,0-1.67,5.45c0,3,3.45,2.78,3.45,0A11.33,11.33,0,0,0,199.85,209Z" transform="translate(-95.82 -2.29)"/><polygon class="cls-8" points="33.62 69.29 34.43 68.47 35.31 69.29 36.23 67.11 34.37 65.39 32.64 67.21 33.62 69.29"/><polygon class="cls-8" points="32.23 70.66 32.24 69.5 33.44 69.46 32.55 67.28 30.02 67.36 30.07 69.87 32.23 70.66"/><polygon class="cls-8" points="36.85 70.67 36.8 69.51 35.59 69.53 36.37 67.31 38.91 67.27 38.97 69.78 36.85 70.67"/><polygon class="cls-8" points="32.09 72.75 32.15 73.91 33.35 73.89 32.57 76.11 30.04 76.15 29.97 73.64 32.09 72.75"/><polygon class="cls-8" points="36.82 72.82 36.78 73.98 35.58 73.98 36.4 76.19 38.93 76.18 38.95 73.67 36.82 72.82"/><polygon class="cls-8" points="31.92 72.54 31.1 71.73 31.92 70.84 29.75 69.93 28.02 71.79 29.84 73.52 31.92 72.54"/><polygon class="cls-8" points="36.93 70.91 37.75 71.73 36.93 72.61 39.1 73.52 40.83 71.66 39.01 69.93 36.93 70.91"/><polygon class="cls-8" points="35.25 74.2 34.43 75.02 33.55 74.2 32.64 76.37 34.5 78.1 36.23 76.28 35.25 74.2"/><path class="cls-3" d="M127.85,52.48a1,1,0,0,0-2.08,0c-.53,9.22-1.61,18.14-3,27A86.7,86.7,0,0,0,120,58.87c-.74-2.78-2.81-1.82-2.46.29a138,138,0,0,1,1.75,25.72,219,219,0,0,0-4.7-28.79.87.87,0,0,0-1.7.23c.66,21.67,4.31,42.5,2.24,63.78-.43,4.39-1.33,12.23-1.83,15s1.95,4.39,3.49.58C118.72,130.85,129.66,74.47,127.85,52.48Z" transform="translate(-95.82 -2.29)"/><path class="cls-2" d="M100.61,93s9.37-9.24,12.73-10.08,7.53.21,9.38,2,2.36,4,3.35,6.27.55,4.22-1.81,5.86-9.76,2.26-12,2.27-8.25,1.64-8.25,1.64Z" transform="translate(-95.82 -2.29)"/></svg>