<svg xmlns="http://www.w3.org/2000/svg" viewBox="0 0 264.58 257.14"><defs><style>.cls-1{isolation:isolate;}.cls-2,.cls-27{opacity:0.08;}.cls-3{fill:#f5ceb0;}.cls-4{fill:#ced9db;}.cls-5{fill:#303030;}.cls-6{fill:#1e3f4b;}.cls-7{fill:#003c77;}.cls-8{fill:#534741;}.cls-9{fill:#f4cdaf;}.cls-10{fill:#dcb322;}.cls-11{fill:#f9d147;}.cls-12{fill:#c7b22f;}.cls-13{fill:#b2a02d;}.cls-14{fill:#ffeb76;}.cls-15{fill:#419993;}.cls-16{opacity:0.11;mix-blend-mode:multiply;}.cls-17{fill:#a12d4c;}.cls-18,.cls-25,.cls-27{fill:#fff;}.cls-19{fill:#8b1f40;}.cls-20{fill:#cb899b;}.cls-21{fill:#bf3d66;}.cls-22{opacity:0.14;}.cls-23{fill:#335b6f;}.cls-24{fill:#112e38;}.cls-25{opacity:0.15;}.cls-26{fill:#4d788a;}.cls-28{fill:#aabdc7;}.cls-29{fill:#bbd0db;}.cls-30{fill:#f8951f;}.cls-31{fill:#57453f;}</style></defs><title>technician1</title><g class="cls-1"><g id="Layer_1" data-name="Layer 1"><path class="cls-2" d="M161.94,259.06c4.51-.48,9-1,13.51-1.52,14.89-1.7,29.78-2.77,44.69-3.82,10.59-.74,21.25-1.13,31.83,0,9.1.93,20.08,2.81,27.11,9.83,3.94,3.94,2.27,8.91-3.53,12.26-6.12,3.54-13.9,3.65-20.66,4.14-63.65,4.66-126.95-1.45-190.61-1.2-9,0-18.16.63-27.17,1-5.46.24-12.57,1.27-17.94-.21-3.4-.94-3.14-4.2-.56-5.89,4.72-3.09,11.82-3.44,17.19-3.79q21-1.36,42.09-3Q120,263.5,161.94,259.06Z" transform="translate(-16.65 -24.53)"/><polygon class="cls-3" points="190.67 91.45 191.37 85.94 193.74 86.17 194.09 90.07 195.25 89.66 194.08 94.3 191.59 94.39 190.67 91.45"/><path class="cls-4" d="M221.79,150.4c3.57.31,7.66.15,10-2.53,1.92-2.18,2.09-5.43,1.45-8.26a1.32,1.32,0,0,0-.45-.87,1.41,1.41,0,0,0-.91-.13l-9.54.73c-1.78.14-5.35,1.13-6.32-.26-1.09-1.56-1.1-5.43-1.48-7.27q-1.45-7.22-2.92-14.41l-4.93.43.15,13.27c0,3.16.07,6.32.1,9.48C207.06,149,214.87,149.78,221.79,150.4Z" transform="translate(-16.65 -24.53)"/><path class="cls-4" d="M242.58,140.88c2.91,2.2,4.15,6.16,4.87,9.82,3,15.08,1.46,30.63-.11,45.92-.17,1.71-.58,2.45-2.24,1.72-10.4-4.62-20.62-10.57-32-11.3,2.85-9.59,3.15-19.74,5.08-29.56a35.8,35.8,0,0,1,2.49-8.32,31.94,31.94,0,0,1,7-9.71c2.67-2.41,6.9-1.35,10.09-.54a15.89,15.89,0,0,1,3.86,1.33A9,9,0,0,1,242.58,140.88Z" transform="translate(-16.65 -24.53)"/><polygon class="cls-3" points="87.48 123.24 90.37 124.05 92.69 122.75 93.21 123.09 92.81 123.74 95.04 123.2 96.71 123.99 97.12 126.39 95.89 128.61 93.42 128.77 90.79 127.5 86.78 126.55 87.48 123.24"/><path class="cls-4" d="M105.43,146.27l-29-7.08c-1-.24-2.19-1.34-3.06-1.87l-6.18-3.77c-1.41-.86-3.88-3.07-5.59-3.07-2.79,0-4.26,4.14-4.28,6.36-.06,6.81,6.33,9.73,11.1,13.39l4.6,2.36,32.18.64Z" transform="translate(-16.65 -24.53)"/><path class="cls-3" d="M70.35,111.2c-3.69,1.23-7.64-1.45-11.2.32-2.32,1.15-3.89,4.06-4.27,7a8,8,0,0,0,.37,4,6,6,0,0,0,1.37,2,7.34,7.34,0,0,0,2.52,1.65A19,19,0,0,1,57.85,129l5.46,1c.24-1.23.47-2.46.71-3.7a8.24,8.24,0,0,0,1.51-.64,11.55,11.55,0,0,0,5.3-9.17A23.05,23.05,0,0,0,70.35,111.2Z" transform="translate(-16.65 -24.53)"/><path class="cls-5" d="M51.65,119.06a7.89,7.89,0,0,1-.44-.81c-1.64-3.36-2.52-7.31-.1-10.56s7.52-4.75,11.39-3.77c2.12.54,4.37,1.27,6.46.59a2.86,2.86,0,0,0,1.58-1.11c.33-.51.42-1.14.76-1.65a2,2,0,0,1,3.42.44,6.9,6.9,0,0,0,.35,1.2c.46.8,1.57.83,2.49,1a1.22,1.22,0,0,1,.8.34c.34.42,0,1.08-.46,1.35-.65.37-1.78.26-2.19,1-.29.52.16,1.52.08,2.13a6.36,6.36,0,0,1-4,4.76c-1.86.69-3.52-.06-5.38-.53a16.73,16.73,0,0,0-1.6-.54,5.49,5.49,0,0,0-1.91.37,8.11,8.11,0,0,1-2.36,0,5.16,5.16,0,0,0-2.35.2,2,2,0,0,0-1.31,1.8c0,1,1,1.69,1,2.65s-.76,1.44-1.07,2.21c-.25.59-.25,1.31-.7,1.77-.2.21-.47.34-.65.56s-.31.72-.62.92a.9.9,0,0,1-1.1-.27,3.17,3.17,0,0,1-.51-1.12A16.29,16.29,0,0,0,51.65,119.06Z" transform="translate(-16.65 -24.53)"/><path class="cls-4" d="M58.62,128.55a4.05,4.05,0,0,0-2.42.24,3.86,3.86,0,0,0-1.39,1.65,95.23,95.23,0,0,0-11.34,55.09,168.78,168.78,0,0,1,33.37-2.6l-3.06-22.05C73,155.46,72.28,150,71,144.7A89.8,89.8,0,0,0,66.63,131C65.47,128.17,61.24,128.81,58.62,128.55Z" transform="translate(-16.65 -24.53)"/><path class="cls-6" d="M82.53,268.88l2.15,2a2.65,2.65,0,0,1-.67,4.37c-1,.44-2.46.37-4.45-1L75,269.09l.74-1.67,6.6-1Z" transform="translate(-16.65 -24.53)"/><path class="cls-7" d="M78.05,181.19l10.63,43.22L85.54,266.7l-10.48.9-2.42-38.14s-23-41.8-21.7-42.7S78.05,181.19,78.05,181.19Z" transform="translate(-16.65 -24.53)"/><path class="cls-6" d="M50,268.88l2.15,2a2.66,2.66,0,0,1-.66,4.37c-1,.45-2.46.38-4.46-1l-4.58-5.16V266.7l1.73-1.52,5.05.93Z" transform="translate(-16.65 -24.53)"/><path class="cls-7" d="M70.78,183.92,67.49,228.3,52,267.37,41.13,265.2l9.53-37s-8.92-46.82-7.38-47.28S70.78,183.92,70.78,183.92Z" transform="translate(-16.65 -24.53)"/><polygon class="cls-7" points="25.82 157.68 29.94 147.75 44.28 143.02 41.55 124.93 55.86 122.62 58.34 148.07 61.85 158.49 27.26 164.78 25.82 157.68"/><path class="cls-7" d="M59,141.57c0-2.8-.12-6-2.27-7.79a2.66,2.66,0,0,0-1.71-.72c-1.29,0-2.17,1.26-2.81,2.38-.21-1.67-.34-3.5.64-4.87,1.25-1.73,4-1.94,5.78-.83a7.71,7.71,0,0,1,3.25,5.3,34.8,34.8,0,0,1,.23,6.38,87.7,87.7,0,0,0,.65,9.3,32.21,32.21,0,0,0-3.69.22C58.3,148.21,58.94,144.44,59,141.57Z" transform="translate(-16.65 -24.53)"/><path class="cls-7" d="M68.64,138.67c-.31-2.69-1-5.67-3.21-7.2-.56-.38-1.28-.8-1.24-1.47a1.22,1.22,0,0,1,.66-.92,2.92,2.92,0,0,1,3.52.92,8.07,8.07,0,0,1,1.38,3.65,102,102,0,0,1,1.8,15.58c0,.78-1.9.35-2.22,0-.53-.58-.24-1.94-.24-2.64A69.78,69.78,0,0,0,68.64,138.67Z" transform="translate(-16.65 -24.53)"/><polygon class="cls-8" points="219.22 234.85 218.79 237.74 219.78 243.24 223.02 242.94 223.63 234.79 223.15 233.49 219.22 234.85"/><polygon class="cls-8" points="203.96 242.8 198.88 246.51 199.51 249.28 208.82 247.08 208.06 243.07 203.96 242.8"/><polygon class="cls-7" points="193.95 169.91 194.11 207.95 202.63 243.66 209.57 243.66 209.14 202.24 213.31 170.94 210.25 164.74 194.84 166.48 193.95 169.91"/><polygon class="cls-7" points="211.53 197.9 218.79 234.22 225.11 233.49 226.84 205.13 230.08 174.1 226.81 165.03 209.17 165.03 211.53 197.9"/><path class="cls-9" d="M245,127.94c-.66-6.2-8.59-10-12-3.69a13.78,13.78,0,0,0-1.87,6.13,6.83,6.83,0,0,0,2.5,5.67l0,0-.57,1.57a.45.45,0,0,0,0,.34.48.48,0,0,0,.31.24l1.84.69a2.07,2.07,0,0,0,.94.2c.71-.07,1.16-.82,1.34-1.52,0-.16.08-.33.11-.5C241.64,136.59,245.41,132,245,127.94Z" transform="translate(-16.65 -24.53)"/><path class="cls-10" d="M205.94,58.36a10.16,10.16,0,1,0,12.9-6.31A10.1,10.1,0,0,0,205.94,58.36Zm6.23,2.11A3.58,3.58,0,1,1,214.4,65,3.58,3.58,0,0,1,212.17,60.47Z" transform="translate(-16.65 -24.53)"/><path class="cls-11" d="M184,56.37a31.05,31.05,0,0,0-.42,6.29l-5.27,1.81L180,73.11l5.56-.32a32.38,32.38,0,0,0,2.8,5.66l-3.66,4.18,5.84,6.64,4.64-3a32.86,32.86,0,0,0,5.27,3.51l-1.06,5.44L207.78,98l2.5-5a32.14,32.14,0,0,0,6.32.42l1.82,5.24L227.1,97l-.32-5.54a32.47,32.47,0,0,0,5.68-2.78l4.21,3.63,6.66-5.8-3.06-4.63a31.62,31.62,0,0,0,3.53-5.24l5.46,1.06,2.86-8.35-5-2.48a31.2,31.2,0,0,0,.42-6.3l5.27-1.8-1.72-8.65-5.56.33a32.38,32.38,0,0,0-2.8-5.66l3.66-4.18L240.57,34,235.93,37a32.2,32.2,0,0,0-5.27-3.51l1.06-5.44-8.38-2.84-2.5,5a32.19,32.19,0,0,0-6.33-.42l-1.81-5.24L204,26.24l.32,5.54a32.47,32.47,0,0,0-5.68,2.78l-4.21-3.64-6.66,5.81,3.06,4.62a31.71,31.71,0,0,0-3.53,5.25l-5.46-1.06L179,53.88Zm55.61,11.16-16.54-5.61a7.46,7.46,0,0,0-3.15-6.38l5.63-16.47A24.62,24.62,0,0,1,239.59,67.53Zm-24.33,1.55a7.52,7.52,0,0,0,6.41-3.14l16.55,5.61a24.79,24.79,0,0,1-28.59,14ZM214.4,65A3.57,3.57,0,1,1,219,62.77,3.56,3.56,0,0,1,214.4,65Zm-22.87-9.28,16.54,5.61a7.48,7.48,0,0,0,3.15,6.38l-5.63,16.46A24.61,24.61,0,0,1,191.53,55.72Zm1.37-4a24.8,24.8,0,0,1,28.59-14l-5.63,16.47a7.52,7.52,0,0,0-6.41,3.14Z" transform="translate(-16.65 -24.53)"/><path class="cls-12" d="M188.2,52.35a28.89,28.89,0,1,1,18,36.5A29,29,0,0,1,188.2,52.35Zm1.15.39a27.68,27.68,0,1,0,35.14-17.2A27.56,27.56,0,0,0,189.35,52.74Z" transform="translate(-16.65 -24.53)"/><path class="cls-10" d="M191,58.35a24.62,24.62,0,0,0,14.56,25.82l2-5.81q1.75,1.52,3.52,2.88l-1.47,4.3a24.62,24.62,0,0,0,8.43.6,97.33,97.33,0,0,0,9.18,5.14l-.46.19L227.1,97l-8.68,1.71-1.82-5.24a32.14,32.14,0,0,1-6.32-.42l-2.5,5-8.38-2.84,1.06-5.44a32.86,32.86,0,0,1-5.27-3.51l-4.64,3-5.84-6.64,3.66-4.18a32.38,32.38,0,0,1-2.8-5.66l-5.56.32-1.72-8.64,5.27-1.81a31.05,31.05,0,0,1,.42-6.29l-5-2.49,2.86-8.34,3.71.72A71.51,71.51,0,0,0,191,58.35Z" transform="translate(-16.65 -24.53)"/><path class="cls-13" d="M188.88,54.27a27.62,27.62,0,0,0,33,34.17l1.53.86a28.85,28.85,0,0,1-35.3-36.68C188.36,53.18,188.62,53.73,188.88,54.27Z" transform="translate(-16.65 -24.53)"/><path class="cls-14" d="M229.55,32.85c0,.11,1.06-4.33,1.06-4.33l-6.72-2.24S228.3,28.61,229.55,32.85Z" transform="translate(-16.65 -24.53)"/><path class="cls-15" d="M131.23,133.83l-3.8,1.89q.27,2.15.75,4.29c.32,1.42.7,2.82,1.15,4.19l4.24.11a6.12,6.12,0,0,1,5,9.49l-2.35,3.55a45.12,45.12,0,0,0,5.91,6.38l3.74-2a6.15,6.15,0,0,1,9.08,5.74l-.25,4.23a45.59,45.59,0,0,0,8.32,2.61l2.22-3.62a6.17,6.17,0,0,1,10.76.45l1.9,3.78c1.44-.18,2.87-.43,4.3-.75s2.84-.7,4.22-1.14l.11-4.23a6.16,6.16,0,0,1,9.54-5l3.56,2.33a44.54,44.54,0,0,0,6.41-5.88l-2-3.71a6.13,6.13,0,0,1,5.77-9.05l4.24.25a44.41,44.41,0,0,0,2.63-8.27L213,137.27a6.12,6.12,0,0,1,.45-10.71l3.8-1.89c-.18-1.43-.43-2.86-.75-4.28s-.7-2.82-1.15-4.19l-4.25-.11a6.13,6.13,0,0,1-5-9.5l2.35-3.55a45.67,45.67,0,0,0-5.91-6.38l-3.74,2a6.16,6.16,0,0,1-9.09-5.75l.25-4.22a43.77,43.77,0,0,0-8.31-2.61l-2.23,3.62a6.17,6.17,0,0,1-10.75-.45l-1.9-3.78c-1.44.18-2.88.42-4.31.74s-2.83.7-4.21,1.15l-.11,4.22a6.15,6.15,0,0,1-9.54,5l-3.56-2.33a45.12,45.12,0,0,0-6.41,5.88l2,3.72a6.13,6.13,0,0,1-5.77,9l-4.25-.25a45.23,45.23,0,0,0-2.62,8.28l3.64,2.22A6.11,6.11,0,0,1,131.23,133.83Zm37.51-8.35c-.15.11-.29.23-.43.35a4.81,4.81,0,0,0-.54.57l-18-2.69a23.4,23.4,0,0,1,12.05-14.39,2.56,2.56,0,0,1,3.64,1.73Zm18.86-8.73L175.19,125a6.23,6.23,0,0,0-1.61-.59L170.35,110a2.55,2.55,0,0,1,2.56-3.11,23.56,23.56,0,0,1,15,5.87A2.54,2.54,0,0,1,187.6,116.75Zm-15,9.89a3.57,3.57,0,1,1-3.84,3.29A3.57,3.57,0,0,1,172.61,126.64Zm5.65,4.19a6.16,6.16,0,0,0-.1-1.87l12.31-8.18a2.55,2.55,0,0,1,3.81,1.2,23.2,23.2,0,0,1-.37,17.36,2.58,2.58,0,0,1-4,1Zm-13.09,18.45,6.56-13.19a6,6,0,0,0,4-1l11.4,9.3a2.55,2.55,0,0,1,0,4,23.6,23.6,0,0,1-20.22,4.53A2.54,2.54,0,0,1,165.17,149.28ZM151.88,129l14.59,2.18a6,6,0,0,0,1,2.37l-6.63,13.34a2.56,2.56,0,0,1-4,.8,23.23,23.23,0,0,1-7.38-12.43,23.59,23.59,0,0,1-.52-3.58A2.56,2.56,0,0,1,151.88,129Z" transform="translate(-16.65 -24.53)"/><g class="cls-16"><path d="M142.49,128a29.93,29.93,0,1,1,27.61,32A29.92,29.92,0,0,1,142.49,128Zm5.89.45a24,24,0,1,0,25.76-22.06A24,24,0,0,0,148.38,128.41Z" transform="translate(-16.65 -24.53)"/></g><path class="cls-17" d="M175.42,63.79a27.62,27.62,0,0,0,.26-3.38L170,58.47l-1-5.83,4.64-3.78a29.67,29.67,0,0,0-3.25-6.06l-5.74,1.75-4.29-4.09,1.52-5.79a29.74,29.74,0,0,0-6-2.92l-3.63,4.76-5.89-.85-2.15-5.58a29.7,29.7,0,0,0-6.81,1.18l-.13,6L131.94,40l-5-3.25a29.6,29.6,0,0,0-4.81,4.94l3.42,4.9-2.61,5.31-6,.32a30.62,30.62,0,0,0-.71,3.53c-.14,1.1-.23,2.19-.26,3.28l5.67,2,1,5.82L118,70.58a29.68,29.68,0,0,0,3.25,6.09L127,74.94l4.28,4.1-1.55,5.78a29.83,29.83,0,0,0,6.22,3l3.62-4.78,5.89.83,2.16,5.58a30.28,30.28,0,0,0,6.81-1.21l.11-6,5.25-2.79,5,3.23a29.53,29.53,0,0,0,4.79-5l-3.44-4.89,2.59-5.33,6-.33A29.89,29.89,0,0,0,175.42,63.79Zm-22.57,7.32a13.43,13.43,0,0,1-18.44-4.34,13.38,13.38,0,1,1,18.44,4.34Z" transform="translate(-16.65 -24.53)"/><path class="cls-18" d="M162.48,49.52a19.67,19.67,0,0,0-27-6.36,19.55,19.55,0,1,0,27,6.36ZM155.1,74.74a17.63,17.63,0,1,1,5.75-24.22A17.72,17.72,0,0,1,155.1,74.74Z" transform="translate(-16.65 -24.53)"/><path class="cls-19" d="M131.08,78.88l.17.16-1.44,5.75-.11,0a29.83,29.83,0,0,0,6.22,3l0-.1,3.66-4.68,5.89.83,2.23,5.49-.07.09a30.28,30.28,0,0,0,6.81-1.21l-.09-.06.2-5.91,5.25-2.79,5.05,3.13v.1a29.53,29.53,0,0,0,4.79-5h-.1l-3.34-4.9,2.59-5.33,5.94-.42.06.09a29.89,29.89,0,0,0,.68-3.44,27.62,27.62,0,0,0,.26-3.38l-.08.07L174,59.91C160.39,73.79,143.81,78,131.08,78.88Z" transform="translate(-16.65 -24.53)"/><path class="cls-20" d="M156.11,76.37a19.46,19.46,0,0,0,7.15-7.7c-1.24.79-2.48,1.53-3.74,2.21a17.71,17.71,0,0,1-16.58,6.25c-1.41.33-2.81.61-4.18.84A19.63,19.63,0,0,0,156.11,76.37Z" transform="translate(-16.65 -24.53)"/><path class="cls-21" d="M137.62,36l.24-4.81a21.22,21.22,0,0,1,5.26-1S139.44,30.87,137.62,36Z" transform="translate(-16.65 -24.53)"/><path class="cls-22" d="M163.07,271.19c.54-.26,1-.57,1.11-.89s-.21-.72-.57-.92c-1-.57-3.4-.29-4.6-.3-2.15,0-4.31,0-6.46.07-1,0-11.76.31-10.75,2.15.89,1.61,6.64,2,8.24,1.94a55.29,55.29,0,0,0,7.83-.55,23.07,23.07,0,0,0,3.87-1C162,271.61,162.58,271.42,163.07,271.19Z" transform="translate(-16.65 -24.53)"/><ellipse class="cls-23" cx="129.78" cy="239.79" rx="8.7" ry="8.66"/><polygon class="cls-6" points="126.42 244.94 123.62 239.48 126.97 234.32 133.13 234.63 135.94 240.1 132.59 245.25 126.42 244.94"/><ellipse class="cls-24" cx="129.78" cy="239.79" rx="3.19" ry="3.17"/><path class="cls-6" d="M159.79,237.17,169,219.74l7.64,4.65-11.33,16.12-3-.47a1.17,1.17,0,0,1-.75-.46Z" transform="translate(-16.65 -24.53)"/><path class="cls-23" d="M161.08,234.53q3.78,1.36,7.77,2.64c1.14.36,1.85-1.39.66-1.76q-4.14-1.29-8-2.66C160.39,232.37,160,234.16,161.08,234.53Z" transform="translate(-16.65 -24.53)"/><path class="cls-23" d="M159.58,237.41q3.53,1.32,7.24,2.57a.83.83,0,1,0,.55-1.56q-3.84-1.26-7.47-2.59C158.89,235.46,158.61,237.05,159.58,237.41Z" transform="translate(-16.65 -24.53)"/><path class="cls-23" d="M164.42,228.08c2.91.88,5.92,1.73,9,2.53,1.34.34,2.5-2.12,1.09-2.46-3.28-.8-6.42-1.64-9.46-2.53C163.84,225.25,163.22,227.71,164.42,228.08Z" transform="translate(-16.65 -24.53)"/><path class="cls-23" d="M162.79,231.25c2.71.93,5.51,1.84,8.39,2.71,1.24.37,2.08-1.63.8-2-3-.87-5.9-1.78-8.72-2.73C162.1,228.83,161.67,230.86,162.79,231.25Z" transform="translate(-16.65 -24.53)"/><polygon class="cls-25" points="148.15 215.9 156.62 201.1 157.96 202.45 148.57 215.92 148.15 215.9"/><path class="cls-26" d="M183,222.26c.11-3-2.21-6.2-5.17-8s-6.89-2.39-9.5-.93c-4,2.21-3.85,8.24,2.59,12.17S182.82,226.78,183,222.26Z" transform="translate(-16.65 -24.53)"/><path class="cls-23" d="M172.08,223.61c-6.44-3.92-6.92-9.37-3.24-11.12,2.42-1.15,6.25-.38,9.21,1.42s5.39,4.84,5.46,7.52C183.61,225.49,178.53,227.54,172.08,223.61Z" transform="translate(-16.65 -24.53)"/><polygon class="cls-6" points="156.57 188.69 161.18 190.21 164.4 193.74 163.47 197.41 156.7 196.23 153.32 190.76 156.57 188.69"/><path class="cls-24" d="M175.08,218.73c-1.71-1-2.37-2.62-1.59-3.41s2.21-.5,3.51.29,2.15,2.09,1.86,3C178.52,219.65,176.8,219.78,175.08,218.73Z" transform="translate(-16.65 -24.53)"/><path class="cls-6" d="M193.58,172.22,182.77,153.8l6.79-3.88,10.81,18.42-1.64,3.28a1.55,1.55,0,0,1-1.47.83Z" transform="translate(-16.65 -24.53)"/><path class="cls-23" d="M186.53,160.71q3.36-3.17,6.59-6.46c.9-.92-.68-2.62-1.59-1.69q-3.22,3.3-6.59,6.46C184,159.9,185.59,161.59,186.53,160.71Z" transform="translate(-16.65 -24.53)"/><path class="cls-23" d="M188.85,164.75q3.36-3.17,6.59-6.46c.91-.92-.68-2.62-1.58-1.69q-3.24,3.3-6.59,6.45C186.33,163.94,187.92,165.63,188.85,164.75Z" transform="translate(-16.65 -24.53)"/><path class="cls-23" d="M191.18,168.79q3.36-3.16,6.59-6.46c.9-.92-.68-2.62-1.59-1.69q-3.23,3.3-6.58,6.45C188.66,168,190.24,169.67,191.18,168.79Z" transform="translate(-16.65 -24.53)"/><path class="cls-23" d="M193.51,172.82q3.36-3.15,6.59-6.45c.9-.93-.68-2.62-1.59-1.69q-3.22,3.3-6.59,6.45C191,172,192.57,173.71,193.51,172.82Z" transform="translate(-16.65 -24.53)"/><polygon class="cls-27" points="182.45 146.37 181.93 147.46 170.68 129.44 173.48 127.42 182.45 146.37"/><path class="cls-26" d="M191.34,142.22c-2.65-1.21-6.77-.32-9.91,1.66s-5.7,5.28-5.71,8.16c0,4.36,5.52,6.49,12.38,2.17S195.35,144,191.34,142.22Z" transform="translate(-16.65 -24.53)"/><path class="cls-23" d="M187,152.48c-6.86,4.31-12,2.73-11.76-1.21.19-2.6,2.86-5.74,6-7.71s7.15-3,9.62-2.11C194.58,142.85,193.84,148.16,187,152.48Z" transform="translate(-16.65 -24.53)"/><polygon class="cls-6" points="161.84 123.69 165.58 120.14 170.44 118.55 173.29 120.75 168.75 126.37 162.06 127.37 161.84 123.69"/><path class="cls-24" d="M184.45,148.59c-1.83,1.15-3.61,1.16-3.92.17s.67-2.16,2.06-3,3-1.15,3.66-.56S186.28,147.44,184.45,148.59Z" transform="translate(-16.65 -24.53)"/><path class="cls-6" d="M147.94,132.51l3.07,9a2.94,2.94,0,0,0,3.73,1.83h0a2.93,2.93,0,0,0,1.85-3.71l-3.07-9a2.94,2.94,0,0,0-3.73-1.84h0A2.93,2.93,0,0,0,147.94,132.51Z" transform="translate(-16.65 -24.53)"/><path class="cls-23" d="M149.7,138.79q3.74-.06,7.47-.06c.71,0,.78,1.1.07,1.1q-3.74,0-7.48.06C149.06,139.9,149,138.8,149.7,138.79Z" transform="translate(-16.65 -24.53)"/><path class="cls-23" d="M148.59,135.52q3.74-.06,7.47-.05c.71,0,.78,1.09.07,1.09-2.49,0-5,0-7.48.06C148,136.63,147.88,135.54,148.59,135.52Z" transform="translate(-16.65 -24.53)"/><path class="cls-23" d="M148,132.56q3.74-.08,7.47-.06c.7,0,.77,1.1.06,1.09q-3.73,0-7.47.06C147.3,133.66,147.23,132.57,148,132.56Z" transform="translate(-16.65 -24.53)"/><path class="cls-28" d="M148.56,129.75c1.39-.19,2.78-.37,4.18-.52,1-.11,2.59-.58,3.61,0s1.47,2,1.92,2.93a33.83,33.83,0,0,1,1.6,4,34.52,34.52,0,0,1,1,3.72c.21,1,.37,2-.45,2.64-1.79,1.46-5,1.26-7.18,1.23-1.32,0-1.52-2.11-.19-2.1a16.55,16.55,0,0,0,5.4-.53c.65-.21.57-.23.43-.93-.11-.54-.24-1.07-.38-1.59-.24-.93-.53-1.84-.85-2.74s-.69-1.8-1.09-2.67a13.33,13.33,0,0,0-.72-1.47c-.39-.6-.4-.53-1-.57a18.6,18.6,0,0,0-2.79.3c-1.09.13-2.17.27-3.26.42C147.46,132,147.27,129.93,148.56,129.75Z" transform="translate(-16.65 -24.53)"/><path class="cls-6" d="M143.7,131.05c1-.28,2-.41,3-.7l.45-.14c1.3-.4,2.1,1.55.79,2-.34.12-.68.23-1,.33-.79.31-1.49.77-1.45,1.75a12.74,12.74,0,0,0,1,3.85,17.76,17.76,0,0,0,1.93,3.56c.46.66.41.8,1.18.71l2.07-.27a1,1,0,0,1,1.15,1,.92.92,0,0,1-.29,1.31c-1.53,1-3.63,2-5.35.67a7.23,7.23,0,0,1-1.65-3L144,138.6c-.73-1.68-2.39-4.11-1.89-6A2.12,2.12,0,0,1,143.7,131.05Z" transform="translate(-16.65 -24.53)"/><path class="cls-28" d="M163.43,137.53c2.87-.3,5.66-.82,8.48-1.39a55.75,55.75,0,0,0,5.58-1.3c1.81-.58,3.6-1.21,5.42-1.73,1.37-.39,5.64-2,6.51-.25.53,1.06-.56,2.36-1.19,3.12-.95,1.12-1.93,2.26-2.94,3.31a50.89,50.89,0,0,1-10.2,8.18,31,31,0,0,1-9.52,4c-.39.08-.78.16-1.17.22a.9.9,0,0,1-.49,0,.86.86,0,0,1-.4-.6,96.75,96.75,0,0,1-2.9-11.5,2.26,2.26,0,0,1,.06-1.48C161.06,137.39,162.73,137.6,163.43,137.53Z" transform="translate(-16.65 -24.53)"/><path class="cls-23" d="M144.15,131.32a.89.89,0,0,0-.7,1.22L147.07,143a1,1,0,0,0,1.09.69l4.6-.66,3.4,9.9h0c-.11-.14-1.52-.16-2-.35a8.74,8.74,0,0,0-2.58-.55c-6-.6-12.37-.78-17.48,2.92-8.23,6-16.31,12.11-24.39,18.25s-16.33,12.54-24.32,19l-.48.39c-4,3.21-7.87,6.47-11.79,9.72Q70,204.85,67,207.36c-2.21,1.8-3.57,3.68-6.69,2.71A16.24,16.24,0,0,1,52.9,205a14.65,14.65,0,0,1-3-6.29c-.53-2.49-1.5-5.59,1.07-7.22,1.13-.71,2.25-1.43,3.33-2.22,16.61-11.23,33.51-22.42,49.88-34.13l3.48-2.48c4.3-3.06,11.44-8.54,15.64-11.74,8.18-6.22,9.13-10.82,13.84-18.39,1.9-3.05,3.68-6.18,5.37-9.35l6,17.59Z" transform="translate(-16.65 -24.53)"/><path class="cls-29" d="M156.89,104.74c6.19-1.17,21.41,6.38,25.41,8.05s1.4,4.8,1.4,4.8l-2.15.34c-1.93.32-3.87.66-5.79,1-1.41.27-2.82.56-4.22.85l-2.11.43c-.56.13-1.08.41-1.63.58s-1.24.38-1.84.63a11.63,11.63,0,0,0-3.3,1.93c-.33.29-.83,1-.66,1.53,0,.06,9.76,27,9.76,27a.49.49,0,0,1-.46.66l-15.14.32s.7-.53.53-2.43a28,28,0,0,0-.68-3.85c-.32-1.32-.71-2.63-1.1-3.93l3.83-.55a1.85,1.85,0,0,0,1.39-2.57l-3.47-9a1,1,0,0,0-1.06-.66l-4.46.55q-3.3-9.8-7.57-19.23l-1,2-.27-.79C144.67,109.41,150.7,105.9,156.89,104.74Z" transform="translate(-16.65 -24.53)"/><path class="cls-29" d="M154.91,142.68c.39,1.3.78,2.61,1.1,3.93a28,28,0,0,1,.68,3.85c.17,1.9-.53,2.43-.53,2.43l-3.4-9.9Z" transform="translate(-16.65 -24.53)"/><path class="cls-29" d="M151.14,130.46l-2.57.32-6-17.59,1-2Q147.83,120.65,151.14,130.46Z" transform="translate(-16.65 -24.53)"/><path class="cls-30" d="M111.09,173.09l-.44.34c-8.74,6.63-17.4,13.35-25.91,20.27l-.51.41c-4.21,3.43-8.38,6.9-12.56,10.36-2.18,1.8-4.35,3.6-6.54,5.38-2.35,1.92-3.81,3.92-7.12,2.89a17.42,17.42,0,0,1-7.87-5.39,15.67,15.67,0,0,1-3.17-6.7c-.57-2.65-1.6-6,1.14-7.69,1.21-.76,2.39-1.52,3.54-2.36,15.77-10.67,32.47-21.8,48.11-32.82Z" transform="translate(-16.65 -24.53)"/><ellipse class="cls-18" cx="41.84" cy="175.83" rx="4.42" ry="4.4"/><path class="cls-27" d="M110,166.18l-3.45-4.67a2,2,0,0,1,.42-2.74c5.61-4.12,24.23-17.84,25.38-19.59,1-1.54,2.09-3.05,3.15-4.56.61-.87,2.61-4.82,3.56-5.09,2.15-.6,3.16,5.32,3.63,6.7,1,2.75,1.86,5.51,2.76,8.27a1.38,1.38,0,0,1-1.25,1.8,16.53,16.53,0,0,0-7.71,2.09c-3.13,2-18.62,14.18-23.67,18.16A2,2,0,0,1,110,166.18Z" transform="translate(-16.65 -24.53)"/><path class="cls-23" d="M55.81,196.69a4.72,4.72,0,0,1,6.57,1,4.69,4.69,0,1,1-6.57-1Zm.29.4A4.19,4.19,0,1,0,62,198,4.23,4.23,0,0,0,56.1,197.09Z" transform="translate(-16.65 -24.53)"/><polygon class="cls-3" points="69.8 150.69 72.25 152.65 75.01 152.34 75.37 152.88 74.72 153.35 77.08 153.74 78.36 155.18 77.77 157.65 75.68 159.28 73.24 158.43 71.23 156.13 67.77 153.58 69.8 150.69"/><path class="cls-4" d="M89.05,174.69,66.94,152.81c-.76-.75-1.24-2.38-1.72-3.31l-3.49-6.7c-.79-1.52-1.81-4.82-3.34-5.74-2.49-1.49-6,1.42-7.27,3.39-3.74,6.06.39,12.11,2.68,17.93L56.63,163l28.45,17.84Z" transform="translate(-16.65 -24.53)"/><path class="cls-7" d="M47.76,112.79a14.08,14.08,0,0,0,2.76,7.49,9,9,0,0,0,2.25-1,43.83,43.83,0,0,0,9.12-6.35,25.38,25.38,0,0,0,6-9A14.11,14.11,0,0,0,59,101.52C53.6,101.84,47.55,106.84,47.76,112.79Z" transform="translate(-16.65 -24.53)"/><path class="cls-7" d="M71.32,97.14c1-.38,2.26-.67,3.11,0s.78,2.36.32,3.56a17.67,17.67,0,0,1-8.47,9.4c-1.67.85-4.83,1.56-5.59-.9-.41-1.32.56-3.8,1.16-5C63.47,100.78,68,98.42,71.32,97.14Z" transform="translate(-16.65 -24.53)"/><path class="cls-7" d="M240.87,160.4h-2.7c.1-1.44.19-2.88.29-4.32a46.46,46.46,0,0,1,.72-6.45,24.16,24.16,0,0,1,4.14-9.37,3.21,3.21,0,0,0-4.19-.4,5.83,5.83,0,0,0-1.72,2.86,52.52,52.52,0,0,0-2.7,12.25,30.22,30.22,0,0,0-.39,5.45l-9.2,0c.12-1.78.24-3.57.35-5.35a49.72,49.72,0,0,1,.72-6.45,24.68,24.68,0,0,1,2.13-6.08c.92-1.81,1.87-4.07,3.61-5.11a11.92,11.92,0,0,0-4.47.68c-1.68.6-2.48,2-3,3.61A52.93,52.93,0,0,0,221.73,154c-.19,1.9-.7,4.52-.25,6.38a.44.44,0,0,1,0,.1h-2.35L211.49,191H244Z" transform="translate(-16.65 -24.53)"/><polygon class="cls-3" points="175.45 138.34 170.32 136.15 171.2 133.95 175.06 134.68 174.98 133.46 179.14 135.86 178.54 138.27 175.45 138.34"/><path class="cls-4" d="M243,147.52a5.11,5.11,0,0,0-1.35-.49,9.32,9.32,0,0,0-6.24,1.14c-3,1.61-5.53,4.18-8.33,6.11l-9.63,6.66-22.77-1.83-.94,4.84,27.05,7.42c4.12-3.15,8.13-6.25,12.42-9.12,3.84-2.57,8.51-4.56,10.94-8.66C245.51,151.27,245.12,148.68,243,147.52Z" transform="translate(-16.65 -24.53)"/><path class="cls-31" d="M230.65,122.66a29.47,29.47,0,0,0-2.18-3.59c-1-1.19-2.78-1.81-3.3-3.3a3.91,3.91,0,0,1,2.18-4.63,7.17,7.17,0,0,1,3.25-.47,5,5,0,0,1,1.62.31,3,3,0,0,1,1.81,2.33,8.73,8.73,0,0,0,.22,2.18c1,2.26,3.66,2.57,5.72,3.1s4,.63,5.85,2a8.64,8.64,0,0,1,2.67,9.5,10.92,10.92,0,0,1-7.6,6.72c-1.91.5-.31-.94.17-1.41a8.7,8.7,0,0,0,2.23-3.32,4.94,4.94,0,0,0-.78-4.88,7.53,7.53,0,0,0-4.13-1.85,14.36,14.36,0,0,0-3-.52,8.89,8.89,0,0,1-1.93,0A4.36,4.36,0,0,1,230.65,122.66Z" transform="translate(-16.65 -24.53)"/><path class="cls-7" d="M249.65,138.53a2.79,2.79,0,0,0,2.38,1.06,1.86,1.86,0,0,0,1.25-1.25,4.33,4.33,0,0,0,.15-1.83,16.63,16.63,0,0,0-4.57-10.18,2.42,2.42,0,0,0-1.87-1c-1,.12-1.68,1.48-2.09,2.28-.32.63.91,1.46,1.2,2.12a3.85,3.85,0,0,1,.22,2.59,2.61,2.61,0,0,0,.1,2A17,17,0,0,0,249.65,138.53Z" transform="translate(-16.65 -24.53)"/><path class="cls-7" d="M239.54,121.05a30.89,30.89,0,0,1,3.22,3.55c1.86,2.47,2.78,5.28,4.18,8,.75,1.44,1.67.38,2.57-.55a8.71,8.71,0,0,0,1.62-9.93,17.67,17.67,0,0,0-3.42-4.35,9.82,9.82,0,0,0-7-2.53c-1.15,0-4.23.45-4.71,1.75S238.77,120.3,239.54,121.05Z" transform="translate(-16.65 -24.53)"/></g></g></svg>